# xmcd CD database file
#
# Track frame offsets:
#	150
#	32733
#	62883
#	90752
#	116027
#	147753
#	177261
#	204718
#	246526
#	273677
#
# Disc length: 3878 seconds
#
# Revision: 0
# Processed by: cddbd v1.5.2PL0 Copyright (c) Steve Scherf et al.
# Submitted via: CDex 1.70beta2
#
DISCID=940f240a
DTITLE=Barth,Barbara - In Spheres (& Manuel Krass)
DYEAR=2018
DGENRE=Jazz
TTITLE0=Spheres
TTITLE1=Lian
TTITLE2=Black Is The colour
TTITLE3=The Water Is Wide
TTITLE4=Iris
TTITLE5=The Windmills Of Your Mind
TTITLE6=Let Go
TTITLE7=One Day Sh´lllFfly
TTITLE8=Everytime We Way Goodbye
TTITLE9=Inner Peace
EXTD=YEAR: 2018
EXTT0=
EXTT1=
EXTT2=
EXTT3=
EXTT4=
EXTT5=
EXTT6=
EXTT7=
EXTT8=
EXTT9=
PLAYORDER=
